<svg id="Capa_1" enable-background="new 0 0 512 512" height="512" viewBox="0 0 512 512" width="512" xmlns="http://www.w3.org/2000/svg"><g><path d="m15 301.01c8.291 0 15-6.719 15-15.01v-15.01h61.76c3.105 34.253 16.663 65.517 37.522 90.527l-42.984 42.984-10.605-10.605c-5.859-5.859-15.352-5.859-21.211 0s-5.859 15.352 0 21.211l42.422 42.422c5.859 5.859 15.352 5.859 21.211 0s5.859-15.352 0-21.211l-10.605-10.605 42.984-42.984c25.01 20.859 56.265 34.417 90.507 37.522v61.76h-15c-8.291 0-15 6.709-15 15s6.709 14.98 15 14.98h60c8.291 0 15-6.689 15-14.98s-6.709-15-15-15h-15v-61.76c34.243-3.105 65.497-16.663 90.507-37.522l42.984 42.984-10.605 10.605c-5.859 5.859-5.859 15.352 0 21.211s15.352 5.859 21.211 0l42.422-42.422c5.859-5.859 5.859-15.352 0-21.211s-15.352-5.859-21.211 0l-10.605 10.605-42.984-42.984c20.859-25.01 34.417-56.275 37.522-90.527h61.758v15.02c0 8.291 6.709 15 15 15s15-6.709 15-15v-60c0-8.291-6.709-15-15-15s-15 6.709-15 15v15h-61.76c-3.105-34.243-16.663-65.497-37.522-90.507l42.986-42.986 10.604 10.607c5.859 5.859 15.352 5.859 21.211 0s5.859-15.352 0-21.211l-42.422-42.437c-5.859-5.859-15.352-5.859-21.211 0s-5.859 15.352 0 21.211l10.611 10.615-42.99 42.989c-25.01-20.859-56.264-34.416-90.507-37.521v-61.78h15c8.291 0 15-6.689 15-14.98s-6.709-15-15-15h-60c-8.291 0-15 6.709-15 15s6.709 14.98 15 14.98h15v61.78c-34.243 3.105-65.497 16.663-90.507 37.522l-42.99-42.989 10.611-10.615c5.859-5.859 5.859-15.352 0-21.211s-15.352-5.859-21.211 0l-42.422 42.436c-5.859 5.859-5.859 15.352 0 21.211s15.352 5.859 21.211 0l10.604-10.607 42.986 42.986c-20.859 25.01-34.417 56.265-37.522 90.507h-61.76v-15c0-8.291-6.709-15-15-15s-15 6.709-15 15v60c0 8.291 6.709 15 15 15zm331-60.004c8.284 0 15 6.716 15 15s-6.716 15-15 15c-8.286 0-15-6.716-15-15 0-8.283 6.714-15 15-15zm-30 60c8.284 0 15 6.716 15 15s-6.716 15-15 15c-8.286 0-15-6.716-15-15s6.714-15 15-15zm-60-149.996c24.814 0 45 20.186 45 45s-20.186 45-45 45-45-20.186-45-45 20.186-45 45-45zm-30 120c24.814 0 45 20.186 45 45s-20.186 45-45 45-45-20.186-45-45 20.186-45 45-45zm-45-45.004c0 8.284-6.716 15-15 15-8.286 0-15-6.716-15-15s6.714-15 15-15c8.284 0 15 6.717 15 15z"/><circle cx="256" cy="196.01" r="15"/><circle cx="226" cy="316.01" r="15"/></g></svg>